<svg width="122" height="109" viewBox="0 0 122 109" fill="none" xmlns="http://www.w3.org/2000/svg">
<g clip-path="url(#clip0)">
<path d="M62.1185 0.238859L58.1777 1.25793L9.62652 13.8132L5.68574 14.8322C3.77294 15.3292 2.13482 16.5667 1.13077 18.2733C0.126718 19.9799 -0.161262 22.0162 0.330008 23.9354L17.4181 90.3836C17.9137 92.3017 19.1477 93.9444 20.8496 94.9513C22.5514 95.9581 24.5821 96.2469 26.496 95.7543L26.5062 95.7516L82.9185 81.1635L82.9287 81.1609C84.8415 80.6639 86.4796 79.4264 87.4837 77.7198C88.4877 76.0132 88.7757 73.9769 88.2844 72.0577L71.1964 5.60954C70.7008 3.6914 69.4667 2.04871 67.7648 1.04186C66.063 0.035013 64.0324 -0.253775 62.1185 0.238859Z" fill="#F2F2F2"/>
<path d="M62.6531 2.32111L57.9855 3.52814L10.8878 15.7075L6.22032 16.9145C4.85816 17.2684 3.69161 18.1497 2.9766 19.365C2.26159 20.5803 2.05651 22.0304 2.40635 23.3971L19.4944 89.8453C19.8473 91.2112 20.7262 92.381 21.9381 93.098C23.15 93.815 24.5961 94.0207 25.959 93.6698L25.9692 93.6672L82.3816 79.0791L82.3918 79.0764C83.7539 78.7225 84.9205 77.8413 85.6355 76.626C86.3505 75.4107 86.5555 73.9606 86.2057 72.5939L69.1176 6.1457C68.7647 4.77976 67.8859 3.60998 66.674 2.89297C65.4621 2.17597 64.016 1.97031 62.6531 2.32111Z" fill="white"/>
<path d="M59.1287 23.8386L30.5911 31.2184C30.2723 31.3008 29.934 31.2529 29.6505 31.0851C29.367 30.9174 29.1616 30.6436 29.0794 30.324C28.9972 30.0044 29.045 29.6651 29.2122 29.3808C29.3795 29.0965 29.6525 28.8905 29.9712 28.8081L58.5089 21.4283C58.8275 21.3462 59.1656 21.3943 59.4489 21.5621C59.7321 21.7298 59.9374 22.0035 60.0195 22.323C60.1017 22.6424 60.054 22.9815 59.887 23.2657C59.7199 23.5499 59.4472 23.7559 59.1287 23.8386Z" fill="#F2F2F2"/>
<path d="M65.132 26.624L31.637 35.2858C31.3182 35.3682 30.9799 35.3203 30.6964 35.1526C30.4129 34.9848 30.2075 34.711 30.1253 34.3914C30.0431 34.0718 30.0909 33.7325 30.2581 33.4482C30.4254 33.1639 30.6984 32.9579 31.0171 32.8755L64.5122 24.2137C64.8309 24.1313 65.1692 24.1792 65.4527 24.347C65.7362 24.5147 65.9417 24.7885 66.0239 25.1081C66.1061 25.4277 66.0583 25.767 65.891 26.0513C65.7238 26.3356 65.4507 26.5416 65.132 26.624Z" fill="#F2F2F2"/>
<path d="M63.8162 42.0664L35.2786 49.4462C35.1208 49.487 34.9565 49.4962 34.7951 49.4734C34.6337 49.4505 34.4784 49.396 34.338 49.313C34.1976 49.2299 34.0749 49.12 33.9769 48.9894C33.8789 48.8588 33.8076 48.7101 33.7669 48.5518C33.7262 48.3936 33.7169 48.2288 33.7397 48.067C33.7625 47.9051 33.8169 47.7494 33.8997 47.6086C33.9825 47.4679 34.0922 47.3448 34.2224 47.2466C34.3527 47.1483 34.5009 47.0767 34.6587 47.0359L63.1964 39.6561C63.3542 39.6153 63.5185 39.6061 63.6799 39.6289C63.8413 39.6518 63.9966 39.7063 64.1369 39.7893C64.2773 39.8724 64.4 39.9824 64.498 40.113C64.596 40.2436 64.6674 40.3922 64.7081 40.5505C64.7488 40.7087 64.758 40.8735 64.7352 41.0353C64.7124 41.1972 64.6581 41.3529 64.5752 41.4937C64.4924 41.6344 64.3828 41.7575 64.2525 41.8557C64.1223 41.954 63.974 42.0256 63.8162 42.0664Z" fill="#F2F2F2"/>
<path d="M69.8195 44.8521L36.3245 53.5138C36.1666 53.5546 36.0024 53.5639 35.841 53.541C35.6796 53.5182 35.5243 53.4636 35.3839 53.3806C35.2435 53.2975 35.1208 53.1876 35.0228 53.057C34.9248 52.9264 34.8535 52.7777 34.8128 52.6195C34.7721 52.4612 34.7628 52.2964 34.7856 52.1346C34.8084 51.9728 34.8628 51.817 34.9456 51.6763C35.0284 51.5355 35.1381 51.4125 35.2683 51.3142C35.3985 51.2159 35.5468 51.1443 35.7046 51.1035L69.1997 42.4418C69.5184 42.3594 69.8567 42.4073 70.1402 42.575C70.4237 42.7427 70.6292 43.0165 70.7114 43.3361C70.7936 43.6558 70.7458 43.995 70.5785 44.2793C70.4113 44.5636 70.1382 44.7696 69.8195 44.8521Z" fill="#F2F2F2"/>
<path d="M68.5036 60.2944L39.966 67.6742C39.6473 67.7564 39.3092 67.7083 39.0259 67.5406C38.7426 67.3728 38.5373 67.0991 38.4551 66.7796C38.3729 66.4602 38.4206 66.121 38.5877 65.8368C38.7548 65.5526 39.0276 65.3465 39.3461 65.2639L67.8838 57.8842C68.2025 57.8017 68.5408 57.8497 68.8243 58.0174C69.1078 58.1851 69.3133 58.4589 69.3955 58.7785C69.4777 59.0981 69.4299 59.4374 69.2626 59.7217C69.0954 60.006 68.8223 60.212 68.5036 60.2944Z" fill="#F2F2F2"/>
<path d="M74.5071 63.0796L41.0121 71.7413C40.8542 71.7823 40.6898 71.7917 40.5283 71.7689C40.3668 71.7462 40.2114 71.6917 40.0709 71.6087C39.9304 71.5256 39.8076 71.4157 39.7095 71.285C39.6114 71.1544 39.54 71.0056 39.4993 70.8473C39.4586 70.6889 39.4494 70.5241 39.4722 70.3621C39.495 70.2002 39.5495 70.0444 39.6324 69.9036C39.7153 69.7628 39.8251 69.6397 39.9555 69.5415C40.0859 69.4433 40.2343 69.3718 40.3922 69.3311L73.8873 60.6693C74.206 60.5869 74.5443 60.6348 74.8279 60.8025C75.1114 60.9703 75.3168 61.2441 75.399 61.5637C75.4812 61.8833 75.4334 62.2226 75.2661 62.5069C75.0989 62.7912 74.8259 62.9972 74.5071 63.0796Z" fill="#F2F2F2"/>
<path d="M25.7191 38.7849L15.6199 41.3966C15.4671 41.4359 15.305 41.4128 15.1691 41.3324C15.0332 41.252 14.9346 41.1209 14.8951 40.9677L12.5768 31.953C12.5376 31.7997 12.5606 31.6371 12.6408 31.5009C12.7209 31.3646 12.8517 31.2658 13.0045 31.2261L23.1037 28.6145C23.2565 28.5751 23.4186 28.5982 23.5545 28.6786C23.6904 28.759 23.789 28.8901 23.8285 29.0433L26.1468 38.058C26.186 38.2113 26.163 38.3739 26.0829 38.5102C26.0027 38.6464 25.8719 38.7452 25.7191 38.7849Z" fill="#E6E6E6"/>
<path d="M30.4066 57.0129L20.3074 59.6246C20.1546 59.6639 19.9925 59.6409 19.8566 59.5605C19.7207 59.4801 19.6221 59.3489 19.5826 59.1957L17.2643 50.181C17.2251 50.0278 17.2481 49.8652 17.3283 49.7289C17.4084 49.5926 17.5392 49.4938 17.692 49.4541L27.7912 46.8425C27.944 46.8032 28.1061 46.8262 28.242 46.9066C28.3779 46.987 28.4765 47.1182 28.516 47.2713L30.8343 56.2861C30.8735 56.4393 30.8505 56.6019 30.7704 56.7382C30.6902 56.8744 30.5594 56.9733 30.4066 57.0129Z" fill="#E6E6E6"/>
<path d="M35.0942 75.2405L24.995 77.8521C24.8421 77.8915 24.68 77.8684 24.5441 77.788C24.4082 77.7076 24.3096 77.5765 24.2701 77.4233L21.9518 68.4086C21.9126 68.2553 21.9356 68.0927 22.0158 67.9564C22.0959 67.8202 22.2267 67.7214 22.3795 67.6817L32.4787 65.07C32.6315 65.0307 32.7937 65.0537 32.9295 65.1341C33.0654 65.2145 33.164 65.3457 33.2035 65.4989L35.5218 74.5136C35.561 74.6669 35.538 74.8295 35.4579 74.9657C35.3777 75.102 35.2469 75.2008 35.0942 75.2405Z" fill="#E6E6E6"/>
<path d="M101.476 17.0815H43.1973C41.2214 17.0838 39.327 17.8719 37.9297 19.273C36.5325 20.6741 35.7466 22.5738 35.7444 24.5552V93.1773C35.7466 95.1588 36.5325 97.0584 37.9297 98.4595C39.327 99.8606 41.2214 100.649 43.1973 100.651H101.476C103.452 100.649 105.347 99.8606 106.744 98.4595C108.141 97.0584 108.927 95.1588 108.929 93.1773V24.5552C108.927 22.5738 108.141 20.6741 106.744 19.273C105.347 17.8719 103.452 17.0838 101.476 17.0815Z" fill="#E6E6E6"/>
<path d="M101.476 19.2329H43.1973C41.7902 19.2345 40.4411 19.7957 39.4461 20.7935C38.4512 21.7912 37.8915 23.144 37.8899 24.5551V93.1771C37.8915 94.5882 38.4512 95.941 39.4461 96.9387C40.4411 97.9365 41.7902 98.4977 43.1973 98.4993H101.476C102.883 98.4977 104.232 97.9365 105.227 96.9387C106.222 95.941 106.782 94.5882 106.784 93.1771V24.5551C106.782 23.1441 106.222 21.7913 105.227 20.7935C104.232 19.7958 102.883 19.2345 101.476 19.2329Z" fill="white"/>
<path d="M107.599 109C115.113 109 121.204 102.892 121.204 95.3573C121.204 87.8225 115.113 81.7144 107.599 81.7144C100.085 81.7144 93.9939 87.8225 93.9939 95.3573C93.9939 102.892 100.085 109 107.599 109Z" fill="#3751FE"/>
<path d="M114.106 93.5776H109.374V88.8322C109.374 88.3603 109.187 87.9077 108.854 87.5739C108.521 87.2402 108.07 87.0527 107.599 87.0527C107.128 87.0527 106.677 87.2402 106.344 87.5739C106.011 87.9077 105.824 88.3603 105.824 88.8322V93.5776H101.092C100.622 93.5776 100.17 93.7651 99.8374 94.0988C99.5046 94.4325 99.3176 94.8852 99.3176 95.3571C99.3176 95.8291 99.5046 96.2817 99.8374 96.6154C100.17 96.9491 100.622 97.1366 101.092 97.1366H105.824V101.882C105.824 102.354 106.011 102.807 106.344 103.14C106.677 103.474 107.128 103.661 107.599 103.661C108.07 103.661 108.521 103.474 108.854 103.14C109.187 102.807 109.374 102.354 109.374 101.882V97.1366H114.106C114.576 97.1366 115.028 96.9491 115.361 96.6154C115.693 96.2817 115.88 95.8291 115.88 95.3571C115.88 94.8852 115.693 94.4325 115.361 94.0988C115.028 93.7651 114.576 93.5776 114.106 93.5776Z" fill="white"/>
<path d="M92.7052 56.9403H63.234C63.0709 56.9405 62.9093 56.9084 62.7586 56.846C62.6078 56.7835 62.4709 56.6919 62.3555 56.5763C62.2401 56.4607 62.1485 56.3234 62.0861 56.1723C62.0236 56.0212 61.9915 55.8593 61.9915 55.6957C61.9915 55.5322 62.0236 55.3702 62.0861 55.2191C62.1485 55.0681 62.2401 54.9308 62.3555 54.8152C62.4709 54.6996 62.6078 54.608 62.7586 54.5455C62.9093 54.483 63.0709 54.451 63.234 54.4512H92.7052C93.0342 54.4515 93.3495 54.5828 93.5819 54.8162C93.8144 55.0495 93.945 55.3659 93.945 55.6957C93.945 56.0256 93.8144 56.3419 93.5819 56.5753C93.3495 56.8086 93.0342 56.9399 92.7052 56.9403Z" fill="#E6E6E6"/>
<path d="M97.8249 61.141H63.234C63.0709 61.1412 62.9093 61.1091 62.7586 61.0467C62.6078 60.9842 62.4709 60.8925 62.3555 60.777C62.2401 60.6614 62.1485 60.5241 62.0861 60.373C62.0236 60.2219 61.9915 60.06 61.9915 59.8964C61.9915 59.7329 62.0236 59.5709 62.0861 59.4198C62.1485 59.2687 62.2401 59.1315 62.3555 59.0159C62.4709 58.9003 62.6078 58.8087 62.7586 58.7462C62.9093 58.6837 63.0709 58.6517 63.234 58.6519H97.8249C98.154 58.6519 98.4697 58.783 98.7024 59.0164C98.9352 59.2498 99.066 59.5663 99.066 59.8964C99.066 60.2265 98.9352 60.5431 98.7024 60.7765C98.4697 61.0099 98.154 61.141 97.8249 61.141Z" fill="#E6E6E6"/>
<path d="M92.7052 75.7645H63.234C63.0709 75.7647 62.9093 75.7326 62.7586 75.6702C62.6078 75.6077 62.4709 75.5161 62.3555 75.4005C62.2401 75.2849 62.1485 75.1476 62.0861 74.9965C62.0236 74.8455 61.9915 74.6835 61.9915 74.5199C61.9915 74.3564 62.0236 74.1944 62.0861 74.0434C62.1485 73.8923 62.2401 73.755 62.3555 73.6394C62.4709 73.5238 62.6078 73.4322 62.7586 73.3697C62.9093 73.3073 63.0709 73.2752 63.234 73.2754H92.7052C93.0344 73.2754 93.3501 73.4065 93.5828 73.6399C93.8156 73.8733 93.9463 74.1899 93.9463 74.5199C93.9463 74.85 93.8156 75.1666 93.5828 75.4C93.3501 75.6334 93.0344 75.7645 92.7052 75.7645Z" fill="#E6E6E6"/>
<path d="M97.8248 79.9652H63.234C63.0709 79.9654 62.9093 79.9333 62.7586 79.8709C62.6078 79.8084 62.4709 79.7168 62.3555 79.6012C62.2401 79.4856 62.1485 79.3483 62.0861 79.1972C62.0236 79.0462 61.9915 78.8842 61.9915 78.7207C61.9915 78.5571 62.0236 78.3951 62.0861 78.2441C62.1485 78.093 62.2401 77.9557 62.3555 77.8401C62.4709 77.7245 62.6078 77.6329 62.7586 77.5704C62.9093 77.508 63.0709 77.4759 63.234 77.4761H97.8248C97.9879 77.4759 98.1495 77.508 98.3002 77.5704C98.4509 77.6329 98.5879 77.7245 98.7033 77.8401C98.8187 77.9557 98.9103 78.093 98.9727 78.2441C99.0352 78.3951 99.0673 78.5571 99.0673 78.7207C99.0673 78.8842 99.0352 79.0462 98.9727 79.1972C98.9103 79.3483 98.8187 79.4856 98.7033 79.6012C98.5879 79.7168 98.4509 79.8084 98.3002 79.8709C98.1495 79.9333 97.9879 79.9654 97.8248 79.9652Z" fill="#E6E6E6"/>
<path d="M56.6321 63.0476H46.2025C46.0448 63.0474 45.8935 62.9845 45.7819 62.8726C45.6704 62.7607 45.6076 62.6091 45.6074 62.4508V53.1412C45.6076 52.983 45.6704 52.8313 45.7819 52.7194C45.8935 52.6075 46.0448 52.5446 46.2025 52.5444H56.6321C56.7899 52.5446 56.9412 52.6075 57.0528 52.7194C57.1643 52.8313 57.2271 52.983 57.2273 53.1412V62.4508C57.2271 62.6091 57.1643 62.7607 57.0528 62.8726C56.9412 62.9845 56.7899 63.0474 56.6321 63.0476Z" fill="#E6E6E6"/>
<path d="M56.6321 81.8718H46.2025C46.0448 81.8717 45.8935 81.8087 45.7819 81.6969C45.6704 81.585 45.6076 81.4333 45.6074 81.2751V71.9654C45.6076 71.8072 45.6704 71.6555 45.7819 71.5436C45.8935 71.4318 46.0448 71.3688 46.2025 71.3687H56.6321C56.7899 71.3688 56.9412 71.4318 57.0528 71.5436C57.1643 71.6555 57.2271 71.8072 57.2273 71.9654V81.2751C57.2271 81.4333 57.1643 81.585 57.0528 81.6969C56.9412 81.8087 56.7899 81.8717 56.6321 81.8718Z" fill="#E6E6E6"/>
<path d="M92.7379 35.9857H71.0099C70.6807 35.9857 70.3651 35.8546 70.1323 35.6212C69.8996 35.3878 69.7688 35.0712 69.7688 34.7411C69.7688 34.4111 69.8996 34.0945 70.1323 33.8611C70.3651 33.6277 70.6807 33.4966 71.0099 33.4966H92.7379C93.0671 33.4966 93.3827 33.6277 93.6155 33.8611C93.8482 34.0945 93.979 34.4111 93.979 34.7411C93.979 35.0712 93.8482 35.3878 93.6155 35.6212C93.3827 35.8546 93.0671 35.9857 92.7379 35.9857Z" fill="#CCCCCC"/>
<path d="M97.8575 40.1859H71.0099C70.8469 40.1859 70.6855 40.1537 70.535 40.0912C70.3844 40.0286 70.2476 39.937 70.1323 39.8214C70.0171 39.7058 69.9256 39.5686 69.8633 39.4176C69.8009 39.2666 69.7688 39.1048 69.7688 38.9413C69.7688 38.7779 69.8009 38.6161 69.8633 38.4651C69.9256 38.3141 70.0171 38.1769 70.1323 38.0613C70.2476 37.9457 70.3844 37.8541 70.535 37.7915C70.6855 37.729 70.8469 37.6968 71.0099 37.6968H97.8575C98.1866 37.6968 98.5023 37.8279 98.7351 38.0613C98.9678 38.2947 99.0986 38.6113 99.0986 38.9413C99.0986 39.2714 98.9678 39.588 98.7351 39.8214C98.5023 40.0548 98.1866 40.1859 97.8575 40.1859Z" fill="#CCCCCC"/>
<path d="M66.2011 45.2766H46.1698C46.012 45.2764 45.8608 45.2135 45.7492 45.1016C45.6376 44.9898 45.5749 44.8381 45.5747 44.6798V29.003C45.5749 28.8448 45.6376 28.6931 45.7492 28.5812C45.8608 28.4694 46.012 28.4064 46.1698 28.4062H66.2011C66.3589 28.4064 66.5102 28.4694 66.6217 28.5812C66.7333 28.6931 66.7961 28.8448 66.7962 29.003V44.6798C66.7961 44.8381 66.7333 44.9898 66.6217 45.1016C66.5102 45.2135 66.3589 45.2764 66.2011 45.2766Z" fill="#3751FE"/>
</g>
<defs>
<clipPath id="clip0">
<rect width="121.112" height="109" fill="white" transform="translate(0.0917969)"/>
</clipPath>
</defs>
</svg>
