<svg width="243" height="123" viewBox="0 0 243 123" fill="none" xmlns="http://www.w3.org/2000/svg">
<path d="M158.982 46.1689H156.056V66.6565H158.982V46.1689Z" fill="#3F3D56"/>
<path d="M50.7062 2.56847L49.6057 5.24219L157.887 48.5829L158.988 45.9092L50.7062 2.56847Z" fill="#3F3D56"/>
<path d="M213.115 87.4326H187.658V97.2436H213.115V87.4326Z" fill="#3F3D56"/>
<path d="M210.774 96.0894H85.2434V107.055H210.774V96.0894Z" fill="#3F3D56"/>
<path d="M190.145 101.572H160.006V64.2036H182.537L190.145 83.0501V101.572Z" fill="#D0CDE1"/>
<path d="M177.563 66.5122H164.688V79.2087H177.563V66.5122Z" fill="white"/>
<path d="M187.219 79.3532H179.026V66.6567H182.537L187.219 79.3532Z" fill="white"/>
<path d="M168.199 86.4224H165.273V91.9049H168.199V86.4224Z" fill="#3F3D56"/>
<path d="M181.513 74.7358H181.659C182.397 74.7358 183.104 75.0247 183.625 75.5387C184.146 76.0528 184.439 76.7501 184.439 77.4771C184.439 78.2042 184.146 78.9014 183.625 79.4155C183.104 79.9296 182.397 80.2184 181.659 80.2184H181.513V74.7358Z" fill="#3F3D56"/>
<path d="M72.6611 96.0894H72.8074C73.5447 96.0894 74.2517 96.3782 74.773 96.8923C75.2944 97.4063 75.5872 98.1036 75.5872 98.8306C75.5872 99.5577 75.2944 100.255 74.773 100.769C74.2517 101.283 73.5447 101.572 72.8074 101.572H72.6611V96.0894Z" fill="#3F3D56"/>
<path d="M201.85 96.0479C206.309 96.0479 210.32 98.1782 213.103 101.572H218.821L213.262 86.2997L187.365 81.2632L188.097 101.572H190.597C193.38 98.1782 197.391 96.0479 201.85 96.0479Z" fill="#D0CDE1"/>
<path d="M202.142 117.731C209.172 117.731 214.871 112.111 214.871 105.179C214.871 98.2463 209.172 92.6265 202.142 92.6265C195.113 92.6265 189.414 98.2463 189.414 105.179C189.414 112.111 195.113 117.731 202.142 117.731Z" fill="#3F3D56"/>
<path d="M202.142 111.785C205.842 111.785 208.842 108.827 208.842 105.179C208.842 101.53 205.842 98.5723 202.142 98.5723C198.443 98.5723 195.443 101.53 195.443 105.179C195.443 108.827 198.443 111.785 202.142 111.785Z" fill="#D0CDE1"/>
<path d="M87.1454 117.587C93.2864 117.587 98.2647 112.677 98.2647 106.621C98.2647 100.566 93.2864 95.6562 87.1454 95.6562C81.0044 95.6562 76.0261 100.566 76.0261 106.621C76.0261 112.677 81.0044 117.587 87.1454 117.587Z" fill="#3F3D56"/>
<path d="M87.1455 112.392C90.3776 112.392 92.9977 109.809 92.9977 106.621C92.9977 103.434 90.3776 100.85 87.1455 100.85C83.9134 100.85 81.2932 103.434 81.2932 106.621C81.2932 109.809 83.9134 112.392 87.1455 112.392Z" fill="#D0CDE1"/>
<path d="M160.884 59.0098H154.739V102.726H160.884V59.0098Z" fill="#3F3D56"/>
<path d="M160.884 94.791H72.5149V97.388H160.884V94.791Z" fill="#3F3D56"/>
<path d="M121.596 78.4662L25.2236 104.322L25.915 106.828L122.288 80.9721L121.596 78.4662Z" fill="#3F3D56"/>
<path d="M115.018 81.6164L113.367 82.8125L123.506 96.4169L125.156 95.2208L115.018 81.6164Z" fill="#3F3D56"/>
<path d="M183.269 79.9302H180.343V81.0844H183.269V79.9302Z" fill="#3F3D56"/>
<path d="M157.519 88.5866H119.187C119.117 88.5866 119.049 88.5616 118.995 88.5163C118.942 88.4709 118.907 88.4082 118.897 88.3395C118.887 88.2709 118.903 88.201 118.94 88.1426C118.978 88.0842 119.036 88.0412 119.104 88.0215L156.558 77.0564C156.6 77.0441 156.644 77.0413 156.687 77.048C156.73 77.0547 156.771 77.0708 156.807 77.0951C156.843 77.1194 156.873 77.1514 156.895 77.1886C156.917 77.2258 156.93 77.2674 156.933 77.3103L157.811 88.2754C157.814 88.3151 157.809 88.355 157.796 88.3926C157.782 88.4302 157.761 88.4647 157.734 88.4939C157.707 88.5232 157.673 88.5465 157.636 88.5624C157.599 88.5784 157.56 88.5866 157.519 88.5866ZM121.201 88.0095H157.203L156.378 77.711L121.201 88.0095Z" fill="#3F3D56"/>
<path d="M53.7173 75.8904H53.7145L45.3144 75.8123C45.2733 75.8119 45.2329 75.8031 45.1956 75.7863C45.1583 75.7695 45.1249 75.7452 45.0978 75.7148C45.0706 75.6845 45.0502 75.649 45.0379 75.6104C45.0256 75.5718 45.0216 75.5311 45.0263 75.4909L49.3909 37.9359C49.3991 37.8655 49.4333 37.8006 49.4869 37.7534C49.5405 37.7063 49.6098 37.6802 49.6817 37.6802H49.683C49.755 37.6805 49.8244 37.707 49.8779 37.7547C49.9314 37.8023 49.9651 37.8678 49.9727 37.9384L54.0083 75.5715C54.0126 75.6117 54.0083 75.6524 53.9956 75.6909C53.9829 75.7294 53.9622 75.7648 53.9348 75.7948C53.9073 75.8249 53.8738 75.8489 53.8363 75.8654C53.7988 75.8819 53.7583 75.8904 53.7173 75.8904ZM45.6448 75.2383L53.3918 75.3102L49.67 40.6037L45.6448 75.2383Z" fill="#3F3D56"/>
<path d="M215.175 91.6504L215.038 91.7014C214.348 91.9586 213.583 91.9351 212.911 91.6362C212.239 91.3372 211.715 90.7872 211.454 90.1072C211.193 89.4271 211.217 88.6728 211.52 88.0101C211.824 87.3474 212.381 86.8306 213.071 86.5734L213.208 86.5223L215.175 91.6504Z" fill="#3F3D56"/>
<path d="M37.1856 93.3329L29.0232 95.5859L29.3858 96.8636L37.5482 94.6106L37.1856 93.3329Z" fill="#3F3D56"/>
<path d="M96.2917 77.3629L94.7162 78.2111L30.7128 95.8775L29.7625 94.7135C28.116 92.7214 27.0636 90.3172 26.7227 87.7693C26.481 85.8668 26.6578 83.8616 28.0036 82.6411L25.5593 63.2006L60.9567 53.3828L77.7457 60.5069C77.7457 60.5069 84.1766 58.6119 88.9091 61.9555C90.4071 63.0149 91.7356 64.5991 92.6339 66.9372L93.4077 69.1416L96.2917 77.3629Z" fill="#3751FE"/>
<path d="M82.1435 89.017C86.6762 89.017 90.3506 85.3936 90.3506 80.9238C90.3506 76.454 86.6762 72.8306 82.1435 72.8306C77.6109 72.8306 73.9365 76.454 73.9365 80.9238C73.9365 85.3936 77.6109 89.017 82.1435 89.017Z" fill="#3F3D56"/>
<path d="M82.1435 85.1833C84.529 85.1833 86.4629 83.2762 86.4629 80.9237C86.4629 78.5711 84.529 76.6641 82.1435 76.6641C79.7579 76.6641 77.824 78.5711 77.824 80.9237C77.824 83.2762 79.7579 85.1833 82.1435 85.1833Z" fill="#D0CDE1"/>
<path d="M43.1455 99.7817C47.6781 99.7817 51.3525 96.1582 51.3525 91.6884C51.3525 87.2187 47.6781 83.5952 43.1455 83.5952C38.6129 83.5952 34.9385 87.2187 34.9385 91.6884C34.9385 96.1582 38.6129 99.7817 43.1455 99.7817Z" fill="#3F3D56"/>
<path d="M43.1454 95.9479C45.531 95.9479 47.4649 94.0408 47.4649 91.6883C47.4649 89.3358 45.531 87.4287 43.1454 87.4287C40.7598 87.4287 38.8259 89.3358 38.8259 91.6883C38.8259 94.0408 40.7598 95.9479 43.1454 95.9479Z" fill="#D0CDE1"/>
<path d="M71.9415 60.7311L46.5473 67.7405L44.4077 60.2024L60.603 55.7319L71.9415 60.7311Z" fill="white"/>
<path d="M41.2982 61.0607L31.1924 63.8501L33.332 71.3883L43.4378 68.5988L41.2982 61.0607Z" fill="white"/>
<path d="M49.4387 73.0047L48.1431 73.3623L48.8321 75.7899L50.1277 75.4322L49.4387 73.0047Z" fill="#3F3D56"/>
<path d="M70.1996 64.9319L69.8369 63.6543L67.3753 64.3338L67.7379 65.6114L70.1996 64.9319Z" fill="#3F3D56"/>
<path d="M66.926 59.3052L67.0685 59.2658C67.7867 59.0676 68.5553 59.1588 69.2053 59.5194C69.8552 59.88 70.3333 60.4805 70.5343 61.1887C70.7353 61.8969 70.6428 62.6548 70.2771 63.2958C69.9115 63.9367 69.3026 64.4082 68.5844 64.6064L68.4419 64.6457L66.926 59.3052Z" fill="#3F3D56"/>
<path d="M93.4076 69.1416C92.4574 69.5166 91.4035 69.5489 90.4316 69.2329C89.4596 68.9168 88.6319 68.2727 88.0943 67.4139C87.5567 66.5551 87.3436 65.5368 87.4926 64.5383C87.6417 63.5398 88.1432 62.6252 88.909 61.9556C90.407 63.0149 91.7354 64.5991 92.6338 66.9372L93.4076 69.1416Z" fill="#3F3D56"/>
<path d="M51.0079 2.59717H48.0818V44.7264H51.0079V2.59717Z" fill="#3F3D56"/>
<path d="M49.5448 8.07958C51.8073 8.07958 53.6414 6.27091 53.6414 4.03979C53.6414 1.80868 51.8073 0 49.5448 0C47.2823 0 45.4482 1.80868 45.4482 4.03979C45.4482 6.27091 47.2823 8.07958 49.5448 8.07958Z" fill="#3F3D56"/>
<path d="M157.519 50.7861C159.781 50.7861 161.616 48.9774 161.616 46.7463C161.616 44.5152 159.781 42.7065 157.519 42.7065C155.256 42.7065 153.422 44.5152 153.422 46.7463C153.422 48.9774 155.256 50.7861 157.519 50.7861Z" fill="#3F3D56"/>
</svg>
