<svg width="143" height="107" viewBox="0 0 143 107" fill="none" xmlns="http://www.w3.org/2000/svg">
<g clip-path="url(#clip0)">
<path d="M115.956 76.2592H2.95039C2.17898 76.2583 1.43941 75.953 0.89394 75.4102C0.348471 74.8673 0.0416433 74.1313 0.0407715 73.3636V4.01741C0.0414001 3.45498 0.266177 2.91577 0.665787 2.51806C1.0654 2.12036 1.60721 1.89664 2.17235 1.896H116.697C117.272 1.89665 117.823 2.12422 118.23 2.5288C118.636 2.93338 118.865 3.48192 118.866 4.05408V73.3636C118.865 74.1313 118.558 74.8673 118.012 75.4102C117.467 75.953 116.727 76.2583 115.956 76.2592Z" fill="#F2F2F2"/>
<path d="M112.302 72.6038H6.98418C5.44032 72.6038 4.18433 71.4333 4.18433 69.9945V9.60699C4.18433 8.53999 5.11505 7.67188 6.25908 7.67188H112.993C114.156 7.67188 115.102 8.5543 115.102 9.63887V69.9945C115.102 71.4333 113.846 72.6038 112.302 72.6038Z" fill="white"/>
<path d="M118.825 4.37856H0V2.90435C0.00111864 2.1341 0.309199 1.39574 0.856653 0.851259C1.40411 0.306776 2.14623 0.000636357 2.92021 0H115.905C116.679 0.000633113 117.421 0.306773 117.969 0.851256C118.516 1.39574 118.824 2.1341 118.825 2.90435V4.37856Z" fill="#3F3D56"/>
<path d="M5.3071 2.9453C5.72426 2.9453 6.06244 2.60875 6.06244 2.1936C6.06244 1.77844 5.72426 1.44189 5.3071 1.44189C4.88994 1.44189 4.55176 1.77844 4.55176 2.1936C4.55176 2.60875 4.88994 2.9453 5.3071 2.9453Z" fill="white"/>
<path d="M8.17404 2.9453C8.5912 2.9453 8.92938 2.60875 8.92938 2.1936C8.92938 1.77844 8.5912 1.44189 8.17404 1.44189C7.75688 1.44189 7.4187 1.77844 7.4187 2.1936C7.4187 2.60875 7.75688 2.9453 8.17404 2.9453Z" fill="white"/>
<path d="M11.0412 2.9453C11.4584 2.9453 11.7966 2.60875 11.7966 2.1936C11.7966 1.77844 11.4584 1.44189 11.0412 1.44189C10.6241 1.44189 10.2859 1.77844 10.2859 2.1936C10.2859 2.60875 10.6241 2.9453 11.0412 2.9453Z" fill="white"/>
<path d="M33.9186 17.1567H15.3058C14.9353 17.1566 14.5683 17.2292 14.226 17.3703C13.8836 17.5113 13.5725 17.7182 13.3105 17.9789C13.0485 18.2397 12.8407 18.5493 12.6989 18.89C12.5572 19.2307 12.4843 19.5958 12.4844 19.9646V32.5702C12.4843 32.9389 12.5572 33.3041 12.6989 33.6448C12.8407 33.9855 13.0485 34.2951 13.3105 34.5559C13.5725 34.8166 13.8836 35.0234 14.226 35.1645C14.5683 35.3056 14.9353 35.3781 15.3058 35.378H33.9186C34.6669 35.378 35.3844 35.0821 35.9135 34.5555C36.4427 34.029 36.7399 33.3148 36.74 32.5702V19.9646C36.7399 19.2199 36.4427 18.5058 35.9136 17.9792C35.3845 17.4527 34.6669 17.1568 33.9186 17.1567Z" fill="#3751FE"/>
<path d="M47.0471 19.9641V32.5712C47.0471 33.3159 47.3444 34.0301 47.8735 34.5566C48.4026 35.0832 49.1203 35.379 49.8686 35.379H68.4809C69.2292 35.379 69.9469 35.0832 70.476 34.5566C71.0051 34.0301 71.3024 33.3159 71.3024 32.5712V19.9641C71.3024 19.2194 71.0051 18.5052 70.476 17.9787C69.9469 17.4521 69.2292 17.1562 68.4809 17.1562H49.8686C49.1203 17.1562 48.4026 17.4521 47.8735 17.9787C47.3444 18.5052 47.0471 19.2194 47.0471 19.9641Z" fill="#3751FE"/>
<path d="M81.6096 19.9641V32.5712C81.6096 33.3159 81.9069 34.0301 82.436 34.5566C82.9651 35.0832 83.6828 35.379 84.4311 35.379H103.043C103.792 35.379 104.509 35.0832 105.038 34.5566C105.568 34.0301 105.865 33.3159 105.865 32.5712V19.9641C105.865 19.2194 105.568 18.5052 105.038 17.9787C104.509 17.4521 103.792 17.1562 103.043 17.1562H84.4311C83.6828 17.1562 82.9651 17.4521 82.436 17.9787C81.9069 18.5052 81.6096 19.2194 81.6096 19.9641Z" fill="#E6E6E6"/>
<path d="M12.4844 47.8674V60.4745C12.4844 61.2192 12.7816 61.9334 13.3108 62.4599C13.8399 62.9865 14.5575 63.2823 15.3058 63.2823H33.9182C34.6665 63.2823 35.3841 62.9865 35.9132 62.4599C36.4423 61.9334 36.7396 61.2192 36.7396 60.4745V47.8674C36.7396 47.1227 36.4423 46.4086 35.9132 45.882C35.3841 45.3554 34.6665 45.0596 33.9182 45.0596H15.3058C14.5575 45.0596 13.8399 45.3554 13.3108 45.882C12.7816 46.4086 12.4844 47.1227 12.4844 47.8674Z" fill="#E6E6E6"/>
<path d="M47.0471 47.8674V60.4745C47.0471 61.2192 47.3444 61.9334 47.8735 62.4599C48.4026 62.9865 49.1203 63.2823 49.8686 63.2823H68.4809C69.2292 63.2823 69.9469 62.9865 70.476 62.4599C71.0051 61.9334 71.3024 61.2192 71.3024 60.4745V47.8674C71.3024 47.1227 71.0051 46.4086 70.476 45.882C69.9469 45.3554 69.2292 45.0596 68.4809 45.0596H49.8686C49.1203 45.0596 48.4026 45.3554 47.8735 45.882C47.3444 46.4086 47.0471 47.1227 47.0471 47.8674Z" fill="#E6E6E6"/>
<path d="M81.6096 47.8674V60.4745C81.6096 61.2192 81.9069 61.9334 82.436 62.4599C82.9651 62.9865 83.6828 63.2823 84.4311 63.2823H103.043C103.792 63.2823 104.509 62.9865 105.038 62.4599C105.568 61.9334 105.865 61.2192 105.865 60.4745V47.8674C105.865 47.1227 105.568 46.4086 105.038 45.882C104.509 45.3554 103.792 45.0596 103.043 45.0596H84.4311C83.6828 45.0596 82.9651 45.3554 82.436 45.882C81.9069 46.4086 81.6096 47.1227 81.6096 47.8674Z" fill="#3751FE"/>
<path d="M141.955 107H95.9305C95.8837 107 95.8389 106.981 95.8058 106.948C95.7727 106.916 95.7542 106.871 95.7542 106.824C95.7542 106.778 95.7727 106.733 95.8058 106.7C95.8389 106.667 95.8837 106.649 95.9305 106.649H141.955C142.002 106.649 142.047 106.667 142.08 106.7C142.113 106.733 142.132 106.778 142.132 106.824C142.132 106.871 142.113 106.916 142.08 106.948C142.047 106.981 142.002 107 141.955 107Z" fill="#3F3D56"/>
<path d="M118.274 104.86L116.113 104.86L115.084 96.5615L118.275 96.5617L118.274 104.86Z" fill="#A0616A"/>
<path d="M114.568 104.245H118.738V106.858H111.943C111.943 106.515 112.011 106.175 112.143 105.858C112.275 105.541 112.468 105.253 112.712 105.01C112.956 104.768 113.245 104.575 113.564 104.444C113.882 104.313 114.224 104.245 114.568 104.245Z" fill="#2F2E41"/>
<path d="M126.386 104.86L124.224 104.86L123.196 96.5615L126.386 96.5617L126.386 104.86Z" fill="#A0616A"/>
<path d="M122.68 104.245H126.849V106.858H120.055C120.055 106.515 120.123 106.175 120.255 105.858C120.386 105.541 120.58 105.253 120.824 105.01C121.067 104.768 121.357 104.575 121.675 104.444C121.994 104.313 122.335 104.245 122.68 104.245Z" fill="#2F2E41"/>
<path d="M126.122 80.1444C125.889 79.9953 125.692 79.7971 125.544 79.564C125.396 79.3308 125.302 79.0683 125.267 78.7948C125.233 78.5214 125.259 78.2437 125.343 77.9813C125.428 77.719 125.57 77.4783 125.758 77.2763L124.335 57.1724L128.435 57.5681L128.548 77.2559C128.868 77.5934 129.052 78.036 129.066 78.4998C129.08 78.9636 128.923 79.4165 128.624 79.7725C128.325 80.1285 127.905 80.363 127.444 80.4316C126.983 80.5001 126.512 80.3979 126.122 80.1444V80.1444Z" fill="#A0616A"/>
<path d="M118.172 100.679L115.792 100.567C115.59 100.557 115.398 100.47 115.258 100.325C115.117 100.179 115.038 99.9853 115.037 99.7833C114.409 90.1455 113.54 79.8111 114.87 75.8187C114.87 75.705 114.894 75.5924 114.941 75.4887C114.988 75.385 115.056 75.2926 115.143 75.2179C115.229 75.1431 115.33 75.0878 115.44 75.0556C115.55 75.0235 115.665 75.0153 115.778 75.0316L125.299 76.4071C125.487 76.4333 125.66 76.5262 125.784 76.6687C125.909 76.8112 125.978 76.9937 125.979 77.1827C127.194 81.9099 127.249 90.4819 127.203 99.3885C127.204 99.4927 127.184 99.596 127.145 99.6925C127.105 99.789 127.047 99.8768 126.973 99.9507C126.899 100.025 126.812 100.083 126.715 100.123C126.618 100.164 126.514 100.184 126.41 100.184H123.844C123.655 100.185 123.471 100.118 123.328 99.9956C123.184 99.8732 123.089 99.7034 123.06 99.5172L121.477 89.5023C121.454 89.3558 121.378 89.2225 121.264 89.1272C121.15 89.0318 121.005 88.9808 120.856 88.9835C120.707 88.9863 120.564 89.0426 120.453 89.1421C120.343 89.2415 120.272 89.3775 120.255 89.5248L118.998 99.9845C118.974 100.176 118.881 100.353 118.736 100.481C118.591 100.609 118.404 100.68 118.21 100.68C118.197 100.68 118.185 100.68 118.172 100.679Z" fill="#2F2E41"/>
<path d="M119.848 77.184C117.749 76.0237 116.11 75.7188 115.319 75.6403C115.214 75.6303 115.112 75.599 115.02 75.5486C114.927 75.4981 114.846 75.4295 114.781 75.3468C114.714 75.2635 114.665 75.1677 114.637 75.0651C114.609 74.9625 114.602 74.8552 114.617 74.7499L116.898 57.8938C117.029 56.9076 117.412 55.9713 118.01 55.174C118.607 54.3767 119.4 53.7448 120.313 53.3385C121.196 52.9345 122.168 52.7621 123.137 52.8377C124.106 52.9132 125.04 53.2343 125.849 53.7704C125.927 53.8221 126.004 53.875 126.079 53.9289C127.011 54.6084 127.72 55.5471 128.116 56.6268C128.513 57.7066 128.579 58.8789 128.307 59.9962C126.908 65.6918 126.428 75.0292 126.346 76.8433C126.339 76.9979 126.287 77.1471 126.195 77.2722C126.104 77.3973 125.977 77.4926 125.831 77.5461C124.97 77.8574 124.062 78.0183 123.146 78.0218C121.993 78.0288 120.857 77.7402 119.848 77.184Z" fill="#3F3D56"/>
<path d="M125.263 63.9271C125.167 63.8584 125.088 63.7691 125.031 63.6658C124.974 63.5625 124.941 63.4478 124.935 63.3303L124.635 57.9118C124.605 57.375 124.776 56.8462 125.115 56.4274C125.454 56.0087 125.936 55.7296 126.47 55.644C127.003 55.5584 127.549 55.6723 128.003 55.9638C128.457 56.2553 128.787 56.7038 128.928 57.2227L130.248 62.0671C130.303 62.2692 130.275 62.4848 130.17 62.6664C130.065 62.848 129.892 62.9809 129.69 63.0359L125.935 64.049C125.821 64.08 125.701 64.0851 125.585 64.064C125.469 64.0429 125.359 63.9961 125.263 63.9271Z" fill="#3F3D56"/>
<path d="M121.756 51.0497C124.148 51.0497 126.087 49.1199 126.087 46.7395C126.087 44.359 124.148 42.4292 121.756 42.4292C119.364 42.4292 117.425 44.359 117.425 46.7395C117.425 49.1199 119.364 51.0497 121.756 51.0497Z" fill="#A0616A"/>
<path d="M106.061 55.2077C106.083 55.3024 106.097 55.3987 106.103 55.4956L113.678 59.8446L115.519 58.7897L117.482 61.3471L113.543 64.141L104.901 57.356C104.549 57.4858 104.165 57.5057 103.801 57.4132C103.437 57.3206 103.11 57.1199 102.863 56.8377C102.616 56.5556 102.462 56.2054 102.42 55.8337C102.378 55.462 102.451 55.0864 102.629 54.7569C102.806 54.4274 103.081 54.1596 103.415 53.9891C103.75 53.8186 104.129 53.7535 104.501 53.8025C104.874 53.8514 105.223 54.0121 105.501 54.2631C105.78 54.5141 105.975 54.8436 106.061 55.2077V55.2077Z" fill="#A0616A"/>
<path d="M113.949 59.4747C113.936 59.3576 113.95 59.2392 113.99 59.1283C114.029 59.0173 114.093 58.9166 114.177 58.8335L118.032 54.9958C118.414 54.6156 118.924 54.3896 119.464 54.3614C120.003 54.3332 120.534 54.5048 120.954 54.8431C121.374 55.1813 121.653 55.6623 121.738 56.1933C121.822 56.7244 121.707 57.2677 121.412 57.7187L118.667 61.9292C118.552 62.1047 118.372 62.2277 118.166 62.2713C117.961 62.3149 117.746 62.2755 117.569 62.1617L114.306 60.0543C114.207 59.9904 114.123 59.9052 114.061 59.8049C113.999 59.7046 113.961 59.5917 113.949 59.4747Z" fill="#3F3D56"/>
<path d="M124.821 50.1493C124.013 51.0058 122.512 50.546 122.407 49.3758C122.399 49.285 122.399 49.1936 122.409 49.1028C122.463 48.5845 122.764 48.1139 122.692 47.5667C122.676 47.4304 122.625 47.3006 122.544 47.1895C121.9 46.3315 120.389 47.5733 119.781 46.7966C119.408 46.3203 119.846 45.5704 119.56 45.038C119.183 44.3355 118.065 44.682 117.364 44.2973C116.584 43.8692 116.631 42.6783 117.144 41.954C117.77 41.0706 118.868 40.5993 119.952 40.5313C121.036 40.4634 122.113 40.755 123.125 41.1476C124.275 41.5936 125.415 42.2099 126.123 43.2162C126.984 44.4399 127.066 46.0851 126.636 47.516C126.374 48.3865 125.481 49.4498 124.821 50.1493Z" fill="#2F2E41"/>
</g>
<defs>
<clipPath id="clip0">
<rect width="142.132" height="107" fill="white"/>
</clipPath>
</defs>
</svg>
